<svg xmlns="http://www.w3.org/2000/svg" xmlns:xlink="http://www.w3.org/1999/xlink" contentStyleType="text/css" data-diagram-type="DESCRIPTION" height="516px" preserveAspectRatio="none" style="width: 1650px; height: 516px; background: rgb(255, 255, 255); pointer-events: auto;" version="1.1" viewBox="0 0 1650 516" width="1650px" zoomAndPan="magnify"><title>Field Studio - Simplified Component Diagram</title><defs/><g><g class="title" data-source-line="1"><text fill="#000000" font-family="sans-serif" font-size="14" font-weight="bold" lengthAdjust="spacing" textLength="356.6035" x="639.9482" y="22.9951">Field Studio - Simplified Component Diagram</text></g><!--cluster Field Studio Application--><g class="cluster" data-entity="Field Studio Application" data-source-line="5" data-uid="ent0002" id="cluster_Field Studio Application"><path d="M376.5,145.2969 L566.4043,145.2969 A3.75,3.75 0 0 1 568.9043,147.7969 L575.9043,167.5938 L1634.5,167.5938 A2.5,2.5 0 0 1 1637,170.0938 L1637,302.7969 A2.5,2.5 0 0 1 1634.5,305.2969 L376.5,305.2969 A2.5,2.5 0 0 1 374,302.7969 L374,147.7969 A2.5,2.5 0 0 1 376.5,145.2969" fill="none" style="stroke:#000000;stroke-width:1.5;"/><line style="stroke:#000000;stroke-width:1.5;" x1="374" x2="575.9043" y1="167.5938" y2="167.5938"/><text fill="#000000" font-family="sans-serif" font-size="14" font-weight="bold" lengthAdjust="spacing" textLength="188.9043" x="378" y="160.292">Field Studio Application</text></g><!--cluster User Environment--><g class="cluster" data-entity="User Environment" data-source-line="12" data-uid="ent0007" id="cluster_User Environment"><path d="M8.5,64.2969 L151.1611,64.2969 A3.75,3.75 0 0 1 153.6611,66.7969 L160.6611,86.5938 L195.5,86.5938 A2.5,2.5 0 0 1 198,89.0938 L198,320.7969 A2.5,2.5 0 0 1 195.5,323.2969 L8.5,323.2969 A2.5,2.5 0 0 1 6,320.7969 L6,66.7969 A2.5,2.5 0 0 1 8.5,64.2969" fill="none" style="stroke:#000000;stroke-width:1.5;"/><line style="stroke:#000000;stroke-width:1.5;" x1="6" x2="160.6611" y1="86.5938" y2="86.5938"/><text fill="#000000" font-family="sans-serif" font-size="14" font-weight="bold" lengthAdjust="spacing" textLength="141.6611" x="10" y="79.292">User Environment</text></g><!--cluster Output Systems--><g class="cluster" data-entity="Output Systems" data-source-line="18" data-uid="ent0011" id="cluster_Output Systems"><path d="M1468,331.2969 L1595.7656,331.2969 A3.75,3.75 0 0 1 1598.2656,333.7969 L1605.2656,353.5938 L1641,353.5938 A2.5,2.5 0 0 1 1643.5,356.0938 L1643.5,506.7969 A2.5,2.5 0 0 1 1641,509.2969 L1468,509.2969 A2.5,2.5 0 0 1 1465.5,506.7969 L1465.5,333.7969 A2.5,2.5 0 0 1 1468,331.2969" fill="none" style="stroke:#000000;stroke-width:1.5;"/><line style="stroke:#000000;stroke-width:1.5;" x1="1465.5" x2="1605.2656" y1="353.5938" y2="353.5938"/><text fill="#000000" font-family="sans-serif" font-size="14" font-weight="bold" lengthAdjust="spacing" textLength="126.7656" x="1469.5" y="346.292">Output Systems</text></g><!--entity UI--><g class="entity" data-entity="UI" data-source-line="6" data-uid="ent0003" id="entity_UI"><rect fill="#F1F1F1" height="46.2969" rx="2.5" ry="2.5" style="stroke:#181818;stroke-width:0.5;" width="97.8594" x="390" y="180.2969"/><rect fill="#F1F1F1" height="10" style="stroke:#181818;stroke-width:0.5;" width="15" x="467.8594" y="185.2969"/><rect fill="#F1F1F1" height="2" style="stroke:#181818;stroke-width:0.5;" width="4" x="465.8594" y="187.2969"/><rect fill="#F1F1F1" height="2" style="stroke:#181818;stroke-width:0.5;" width="4" x="465.8594" y="191.2969"/><text fill="#000000" font-family="sans-serif" font-size="14" lengthAdjust="spacing" textLength="57.8594" x="405" y="213.292">UI Layer</text></g><!--entity State--><g class="entity" data-entity="State" data-source-line="7" data-uid="ent0004" id="entity_State"><rect fill="#F1F1F1" height="46.2969" rx="2.5" ry="2.5" style="stroke:#181818;stroke-width:0.5;" width="173.7314" x="701" y="180.2969"/><rect fill="#F1F1F1" height="10" style="stroke:#181818;stroke-width:0.5;" width="15" x="854.7314" y="185.2969"/><rect fill="#F1F1F1" height="2" style="stroke:#181818;stroke-width:0.5;" width="4" x="852.7314" y="187.2969"/><rect fill="#F1F1F1" height="2" style="stroke:#181818;stroke-width:0.5;" width="4" x="852.7314" y="191.2969"/><text fill="#000000" font-family="sans-serif" font-size="14" lengthAdjust="spacing" textLength="133.7314" x="716" y="213.292">State Management</text></g><!--entity Services--><g class="entity" data-entity="Services" data-source-line="8" data-uid="ent0005" id="entity_Services"><rect fill="#F1F1F1" height="46.2969" rx="2.5" ry="2.5" style="stroke:#181818;stroke-width:0.5;" width="99.0352" x="1057.5" y="206.2969"/><rect fill="#F1F1F1" height="10" style="stroke:#181818;stroke-width:0.5;" width="15" x="1136.5352" y="211.2969"/><rect fill="#F1F1F1" height="2" style="stroke:#181818;stroke-width:0.5;" width="4" x="1134.5352" y="213.2969"/><rect fill="#F1F1F1" height="2" style="stroke:#181818;stroke-width:0.5;" width="4" x="1134.5352" y="217.2969"/><text fill="#000000" font-family="sans-serif" font-size="14" lengthAdjust="spacing" textLength="59.0352" x="1072.5" y="239.292">Services</text></g><!--entity Storage--><g class="entity" data-entity="Storage" data-source-line="9" data-uid="ent0006" id="entity_Storage"><rect fill="#F1F1F1" height="46.2969" rx="2.5" ry="2.5" style="stroke:#181818;stroke-width:0.5;" width="132.6543" x="1488" y="180.2969"/><rect fill="#F1F1F1" height="10" style="stroke:#181818;stroke-width:0.5;" width="15" x="1600.6543" y="185.2969"/><rect fill="#F1F1F1" height="2" style="stroke:#181818;stroke-width:0.5;" width="4" x="1598.6543" y="187.2969"/><rect fill="#F1F1F1" height="2" style="stroke:#181818;stroke-width:0.5;" width="4" x="1598.6543" y="191.2969"/><text fill="#000000" font-family="sans-serif" font-size="14" lengthAdjust="spacing" textLength="92.6543" x="1503" y="213.292">Data Storage</text></g><!--entity Browser--><g class="entity" data-entity="Browser" data-source-line="13" data-uid="ent0008" id="entity_Browser"><rect fill="#F1F1F1" height="46.2969" rx="2.5" ry="2.5" style="stroke:#181818;stroke-width:0.5;" width="132.832" x="35.5" y="99.2969"/><rect fill="#F1F1F1" height="10" style="stroke:#181818;stroke-width:0.5;" width="15" x="148.332" y="104.2969"/><rect fill="#F1F1F1" height="2" style="stroke:#181818;stroke-width:0.5;" width="4" x="146.332" y="106.2969"/><rect fill="#F1F1F1" height="2" style="stroke:#181818;stroke-width:0.5;" width="4" x="146.332" y="110.2969"/><text fill="#000000" font-family="sans-serif" font-size="14" lengthAdjust="spacing" textLength="92.832" x="50.5" y="132.292">Web Browser</text></g><!--entity Files--><g class="entity" data-entity="Files" data-source-line="14" data-uid="ent0009" id="entity_Files"><rect fill="#F1F1F1" height="46.2969" rx="2.5" ry="2.5" style="stroke:#181818;stroke-width:0.5;" width="112.7207" x="45.5" y="180.2969"/><rect fill="#F1F1F1" height="10" style="stroke:#181818;stroke-width:0.5;" width="15" x="138.2207" y="185.2969"/><rect fill="#F1F1F1" height="2" style="stroke:#181818;stroke-width:0.5;" width="4" x="136.2207" y="187.2969"/><rect fill="#F1F1F1" height="2" style="stroke:#181818;stroke-width:0.5;" width="4" x="136.2207" y="191.2969"/><text fill="#000000" font-family="sans-serif" font-size="14" lengthAdjust="spacing" textLength="72.7207" x="60.5" y="213.292">Local Files</text></g><!--entity Hardware--><g class="entity" data-entity="Hardware" data-source-line="15" data-uid="ent0010" id="entity_Hardware"><rect fill="#F1F1F1" height="46.2969" rx="2.5" ry="2.5" style="stroke:#181818;stroke-width:0.5;" width="160.4766" x="22" y="261.2969"/><rect fill="#F1F1F1" height="10" style="stroke:#181818;stroke-width:0.5;" width="15" x="162.4766" y="266.2969"/><rect fill="#F1F1F1" height="2" style="stroke:#181818;stroke-width:0.5;" width="4" x="160.4766" y="268.2969"/><rect fill="#F1F1F1" height="2" style="stroke:#181818;stroke-width:0.5;" width="4" x="160.4766" y="272.2969"/><text fill="#000000" font-family="sans-serif" font-size="14" lengthAdjust="spacing" textLength="120.4766" x="37" y="294.292">Device Hardware</text></g><!--entity IIIFViewers--><g class="entity" data-entity="IIIFViewers" data-source-line="19" data-uid="ent0012" id="entity_IIIFViewers"><rect fill="#F1F1F1" height="46.2969" rx="2.5" ry="2.5" style="stroke:#181818;stroke-width:0.5;" width="120.083" x="1494.5" y="366.2969"/><rect fill="#F1F1F1" height="10" style="stroke:#181818;stroke-width:0.5;" width="15" x="1594.583" y="371.2969"/><rect fill="#F1F1F1" height="2" style="stroke:#181818;stroke-width:0.5;" width="4" x="1592.583" y="373.2969"/><rect fill="#F1F1F1" height="2" style="stroke:#181818;stroke-width:0.5;" width="4" x="1592.583" y="377.2969"/><text fill="#000000" font-family="sans-serif" font-size="14" lengthAdjust="spacing" textLength="80.083" x="1509.5" y="399.292">IIIF Viewers</text></g><!--entity Downloads--><g class="entity" data-entity="Downloads" data-source-line="20" data-uid="ent0013" id="entity_Downloads"><rect fill="#F1F1F1" height="46.2969" rx="2.5" ry="2.5" style="stroke:#181818;stroke-width:0.5;" width="145.7793" x="1481.5" y="447.2969"/><rect fill="#F1F1F1" height="10" style="stroke:#181818;stroke-width:0.5;" width="15" x="1607.2793" y="452.2969"/><rect fill="#F1F1F1" height="2" style="stroke:#181818;stroke-width:0.5;" width="4" x="1605.2793" y="454.2969"/><rect fill="#F1F1F1" height="2" style="stroke:#181818;stroke-width:0.5;" width="4" x="1605.2793" y="458.2969"/><text fill="#000000" font-family="sans-serif" font-size="14" lengthAdjust="spacing" textLength="105.7793" x="1496.5" y="480.292">File Downloads</text></g><g class="entity" data-entity="GMN23" data-source-line="48" data-uid="ent0024" id="entity_GMN23"><path d="M362,43.2969 L362,128.9609 A0,0 0 0 0 362,128.9609 L435,128.9609 L439,179.9869 L443,128.9609 L516.4912,128.9609 A0,0 0 0 0 516.4912,128.9609 L516.4912,53.2969 L506.4912,43.2969 L362,43.2969 A0,0 0 0 0 362,43.2969" fill="#FEFFDD" style="stroke:#181818;stroke-width:0.5;"/><path d="M506.4912,43.2969 L506.4912,53.2969 L516.4912,53.2969 L506.4912,43.2969" fill="#FEFFDD" style="stroke:#181818;stroke-width:0.5;"/><text fill="#000000" font-family="sans-serif" font-size="13" font-weight="bold" lengthAdjust="spacing" textLength="65.876" x="368" y="60.3638">UI Layer:</text><text fill="#000000" font-family="sans-serif" font-size="13" lengthAdjust="spacing" textLength="133.4912" x="368" y="75.4966">• React components</text><text fill="#000000" font-family="sans-serif" font-size="13" lengthAdjust="spacing" textLength="81.3896" x="368" y="90.6294">• TypeScript</text><text fill="#000000" font-family="sans-serif" font-size="13" lengthAdjust="spacing" textLength="133.3833" x="368" y="105.7622">• Responsive design</text><text fill="#000000" font-family="sans-serif" font-size="13" lengthAdjust="spacing" textLength="75.7529" x="368" y="120.895">• PWA shell</text></g><g class="entity" data-entity="GMN26" data-source-line="56" data-uid="ent0027" id="entity_GMN26"><path d="M705,57.7969 L705,128.3281 A0,0 0 0 0 705,128.3281 L784,128.3281 L788,180.0969 L792,128.3281 L870.7964,128.3281 A0,0 0 0 0 870.7964,128.3281 L870.7964,67.7969 L860.7964,57.7969 L705,57.7969 A0,0 0 0 0 705,57.7969" fill="#FEFFDD" style="stroke:#181818;stroke-width:0.5;"/><path d="M860.7964,57.7969 L860.7964,67.7969 L870.7964,67.7969 L860.7964,57.7969" fill="#FEFFDD" style="stroke:#181818;stroke-width:0.5;"/><text fill="#000000" font-family="sans-serif" font-size="13" font-weight="bold" lengthAdjust="spacing" textLength="144.7964" x="711" y="74.8638">State Management:</text><text fill="#000000" font-family="sans-serif" font-size="13" lengthAdjust="spacing" textLength="109.3447" x="711" y="89.9966">• Zustand stores</text><text fill="#000000" font-family="sans-serif" font-size="13" lengthAdjust="spacing" textLength="125.0869" x="711" y="105.1294">• Local persistence</text><text fill="#000000" font-family="sans-serif" font-size="13" lengthAdjust="spacing" textLength="126.6104" x="711" y="120.2622">• Type-safe actions</text></g><g class="entity" data-entity="GMN29" data-source-line="63" data-uid="ent0030" id="entity_GMN29"><path d="M1026,43.2969 L1026,128.9609 A0,0 0 0 0 1026,128.9609 L1103,128.9609 L1107,206.1169 L1111,128.9609 L1188.2798,128.9609 A0,0 0 0 0 1188.2798,128.9609 L1188.2798,53.2969 L1178.2798,43.2969 L1026,43.2969 A0,0 0 0 0 1026,43.2969" fill="#FEFFDD" style="stroke: rgb(24, 24, 24); stroke-width: 0.5px; pointer-events: auto;"/><path d="M1178.2798,43.2969 L1178.2798,53.2969 L1188.2798,53.2969 L1178.2798,43.2969" fill="#FEFFDD" style="stroke:#181818;stroke-width:0.5;"/><text fill="#000000" font-family="sans-serif" font-size="13" font-weight="bold" lengthAdjust="spacing" textLength="66.9805" x="1032" y="60.3638">Services:</text><text fill="#000000" font-family="sans-serif" font-size="13" lengthAdjust="spacing" textLength="141.2798" x="1032" y="75.4966">• IIIF manifest builder</text><text fill="#000000" font-family="sans-serif" font-size="13" lengthAdjust="spacing" textLength="125.3218" x="1032" y="90.6294" style="pointer-events: auto;">• Media processing</text><text fill="#000000" font-family="sans-serif" font-size="13" lengthAdjust="spacing" textLength="129.1875" x="1032" y="105.7622">• Export generation</text><text fill="#000000" font-family="sans-serif" font-size="13" lengthAdjust="spacing" textLength="110.9761" x="1032" y="120.895">• Data validation</text></g><g class="entity" data-entity="GMN32" data-source-line="71" data-uid="ent0033" id="entity_GMN32"><path d="M1467,57.7969 L1467,128.3281 A0,0 0 0 0 1467,128.3281 L1550.5,128.3281 L1554.5,180.0969 L1558.5,128.3281 L1641.6323,128.3281 A0,0 0 0 0 1641.6323,128.3281 L1641.6323,67.7969 L1631.6323,57.7969 L1467,57.7969 A0,0 0 0 0 1467,57.7969" fill="#FEFFDD" style="stroke:#181818;stroke-width:0.5;"/><path d="M1631.6323,57.7969 L1631.6323,67.7969 L1641.6323,67.7969 L1631.6323,57.7969" fill="#FEFFDD" style="stroke:#181818;stroke-width:0.5;"/><text fill="#000000" font-family="sans-serif" font-size="13" font-weight="bold" lengthAdjust="spacing" textLength="102.0894" x="1473" y="74.8638">Data Storage:</text><text fill="#000000" font-family="sans-serif" font-size="13" lengthAdjust="spacing" textLength="135.7065" x="1473" y="89.9966">• IndexedDB for files</text><text fill="#000000" font-family="sans-serif" font-size="13" lengthAdjust="spacing" textLength="153.6323" x="1473" y="105.1294">• Service Worker cache</text><text fill="#000000" font-family="sans-serif" font-size="13" lengthAdjust="spacing" textLength="149.7539" x="1473" y="120.2622">• Browser storage APIs</text></g><!--link Browser to UI--><g class="link" data-entity-1="Browser" data-entity-2="UI" data-source-line="24" data-uid="lnk14" id="link_Browser_UI"><path d="M168.79,138.2069 C233.86,153.9369 326.0582,176.2261 384.1382,190.2761" fill="none" id="Browser-to-UI" style="stroke:#181818;stroke-width:1;"/><polygon fill="#181818" points="389.97,191.6869,382.1628,185.6829,385.1102,190.5112,380.2818,193.4586,389.97,191.6869" style="stroke:#181818;stroke-width:1;"/><text fill="#000000" font-family="sans-serif" font-size="13" lengthAdjust="spacing" textLength="114.9561" x="216" y="147.3638">Loads Application</text></g><!--link UI to State--><g class="link" data-entity-1="UI" data-entity-2="State" data-source-line="25" data-uid="lnk15" id="link_UI_State"><path d="M488.25,203.2969 C543.09,203.2969 627.69,203.2969 694.76,203.2969" fill="none" id="UI-to-State" style="stroke:#181818;stroke-width:1;"/><polygon fill="#181818" points="700.76,203.2969,691.76,199.2969,695.76,203.2969,691.76,207.2969,700.76,203.2969" style="stroke:#181818;stroke-width:1;"/><text fill="#000000" font-family="sans-serif" font-size="13" lengthAdjust="spacing" textLength="123.7158" x="547" y="199.3638">Dispatches Actions</text></g><!--link State to Services--><g class="link" data-entity-1="State" data-entity-2="Services" data-source-line="26" data-uid="lnk16" id="link_State_Services"><path d="M875.2,210.3669 C933.69,215.1669 1002.9101,220.8362 1051.2901,224.8062" fill="none" id="State-to-Services" style="stroke:#181818;stroke-width:1;"/><polygon fill="#181818" points="1057.27,225.2969,1048.6273,220.5742,1052.2867,224.888,1047.973,228.5474,1057.27,225.2969" style="stroke:#181818;stroke-width:1;"/><text fill="#000000" font-family="sans-serif" font-size="13" lengthAdjust="spacing" textLength="89.9907" x="906" y="209.3638">Calls Services</text></g><!--link Services to Storage--><g class="link" data-entity-1="Services" data-entity-2="Storage" data-source-line="27" data-uid="lnk17" id="link_Services_Storage"><path d="M1156.51,244.4169 C1175.49,249.5969 1197.57,254.7369 1218,257.2969 C1314.58,269.3969 1341.95,278.2569 1437,257.2969 C1464.32,251.2769 1487.5621,241.012 1509.5521,229.222" fill="none" id="Services-to-Storage" style="stroke:#181818;stroke-width:1;"/><polygon fill="#181818" points="1514.84,226.3869,1505.018,227.1143,1510.4334,228.7495,1508.7982,234.1648,1514.84,226.3869" style="stroke:#181818;stroke-width:1;"/><text fill="#000000" font-family="sans-serif" font-size="13" lengthAdjust="spacing" textLength="121.2529" x="1267" y="253.3638">Reads/Writes Data</text></g><!--link Storage to Services--><g class="link" data-entity-1="Storage" data-entity-2="Services" data-source-line="28" data-uid="lnk18" id="link_Storage_Services"><path d="M1487.76,207.1369 C1397.37,212.4069 1242.7998,221.427 1162.5098,226.117" fill="none" id="Storage-to-Services" style="stroke:#181818;stroke-width:1;"/><polygon fill="#181818" points="1156.52,226.4669,1165.7379,229.9352,1161.5115,226.1753,1165.2714,221.9489,1156.52,226.4669" style="stroke:#181818;stroke-width:1;"/><text fill="#000000" font-family="sans-serif" font-size="13" lengthAdjust="spacing" textLength="85.8965" x="1285" y="206.3638">Returns Data</text></g><!--link Files to UI--><g class="link" data-entity-1="Files" data-entity-2="UI" data-source-line="31" data-uid="lnk19" id="link_Files_UI"><path d="M158.69,203.2969 C223.25,203.2969 322.6,203.2969 383.79,203.2969" fill="none" id="Files-to-UI" style="stroke:#181818;stroke-width:1;"/><polygon fill="#181818" points="389.79,203.2969,380.79,199.2969,384.79,203.2969,380.79,207.2969,389.79,203.2969" style="stroke:#181818;stroke-width:1;"/><text fill="#000000" font-family="sans-serif" font-size="13" lengthAdjust="spacing" textLength="79.1553" x="233.5" y="199.3638">Upload Files</text></g><!--link Hardware to UI--><g class="link" data-entity-1="Hardware" data-entity-2="UI" data-source-line="32" data-uid="lnk20" id="link_Hardware_UI"><path d="M182.39,265.0969 C246.82,249.5269 329.7381,229.4772 383.9081,216.3772" fill="none" id="Hardware-to-UI" style="stroke:#181818;stroke-width:1;"/><polygon fill="#181818" points="389.74,214.9669,380.0519,213.1944,384.8801,216.1422,381.9324,220.9703,389.74,214.9669" style="stroke:#181818;stroke-width:1;"/><text fill="#000000" font-family="sans-serif" font-size="13" lengthAdjust="spacing" textLength="116.5938" x="215" y="226.3638">Camera/Geo Data</text></g><!--link Services to Downloads--><g class="link" data-entity-1="Services" data-entity-2="Downloads" data-source-line="35" data-uid="lnk21" id="link_Services_Downloads"><path d="M1112.96,252.5169 C1123.65,296.3469 1153.34,390.7569 1218,434.2969 C1296.11,486.8969 1402.4355,488.1795 1475.1955,481.4495" fill="none" id="Services-to-Downloads" style="stroke:#181818;stroke-width:1;"/><polygon fill="#181818" points="1481.17,480.8969,1471.8398,477.7428,1476.1913,481.3574,1472.5767,485.7088,1481.17,480.8969" style="stroke:#181818;stroke-width:1;"/><text fill="#000000" font-family="sans-serif" font-size="13" lengthAdjust="spacing" textLength="82.9321" x="1286.5" y="430.3638">Exports Files</text></g><!--link Services to IIIFViewers--><g class="link" data-entity-1="Services" data-entity-2="IIIFViewers" data-source-line="36" data-uid="lnk22" id="link_Services_IIIFViewers"><path d="M1117.57,252.3969 C1133.02,286.3269 1167,348.5269 1218,375.2969 C1305.49,421.2269 1418.2742,413.4075 1488.5142,402.2575" fill="none" id="Services-to-IIIFViewers" style="stroke:#181818;stroke-width:1;"/><polygon fill="#181818" points="1494.44,401.3169,1484.9242,398.7773,1489.5018,402.1008,1486.1784,406.6784,1494.44,401.3169" style="stroke:#181818;stroke-width:1;"/><text fill="#000000" font-family="sans-serif" font-size="13" lengthAdjust="spacing" textLength="133.8721" x="1260.6489" y="291.3638">Generates Manifests</text><path d="M1223,300.4297 L1223,370.4297 L1432,370.4297 L1432,310.4297 L1422,300.4297 L1223,300.4297" fill="#FEFFDD" style="stroke:#181818;stroke-width:0.5;"/><path d="M1422,300.4297 L1422,310.4297 L1432,310.4297 L1422,300.4297" fill="#FEFFDD" style="stroke:#181818;stroke-width:0.5;"/><text fill="#000000" font-family="sans-serif" font-size="13" font-weight="bold" lengthAdjust="spacing" textLength="140.6768" x="1229" y="317.4966">Primary Data Flow:</text><text fill="#000000" font-family="sans-serif" font-size="13" lengthAdjust="spacing" textLength="176.3887" x="1229" y="332.6294">1. User action → UI → State</text><text fill="#000000" font-family="sans-serif" font-size="13" lengthAdjust="spacing" textLength="188.1699" x="1229" y="347.7622">2. State → Service → Storage</text><text fill="#000000" font-family="sans-serif" font-size="13" lengthAdjust="spacing" textLength="128.8955" x="1229" y="362.895">3. Service → Output</text></g><!--SRC=[VLHBRjim4Dth50DlkdA2jhiW293OIIeWGOEuhe4MNT3Io252aG99sJ6A0btr03r2ZvQJT8QVMCeY6rkSzpZp-6P8Bxr2k9AeQbZulfO6fh2GRQTa8x66cMaxer5xc4kniQ8j2eMD1s_0ois3XrfQhBmqkYWwKJsA3S9abEwyeroLOCe4VXO0tvSbt8WzsXyW72nB3Ysyy0YtGjF-bge5A0G3YdOhAtGncXOCp8KNH3EMjgKjuRluDL2pT6ZXKc-bDPfp9nKhNCE5DJkNXAHlXcvC9HIPebB9y1Ng8PU6JyBMEs5ZoRmOrVpS-wxtiDWxZwrB5Skol8Al4dTeOruEf3NZN0RcPgUL4NLalAmu-plgXaMeZDRHSbSaqJ2Tdf6JS0AJ6sQFJ2y8O3nwJ9IvT9tmrGCIB-QP514CjEGlCsT2gOFZnCfOp1UyPjuzKj7ZbPMUC6uA9upewvJtw7khCulEL6fsofdUSbE3rOFZB3i-Vkp0fCXU3mWpqQ8LnzTe3YcJ-pKwBxM8JesalzZA6IwVEcEzopL6n467c7gDcehn8MbKPKFvNIWOvh1HPWVQ45hmBnWDIkf7wkpf-kpEobROVMHU4VFaz7XzHjZx8mW3Aa8duFdFNpuO_-Nn_t2KMXU2KLqYn647-7Wq0kBv2zHrq1Cd9z_Z6hsGAcbS6-zD2wQ9zv24vikPzJt__WVKtihJtAKKBeM_x3jSL5Ps_eNdYE7a5jbxkT4fVhSw1_U0IWqalIgV3qiANhy5GoNVUkS5vN1qTCmwudNjg4UIhfkkSA1lwaI3oLptHld3ey8AqcfOELpUDdKTrhrKTNWi6Bl5MWhehA4zJkfD2iV1WaqS6duYOppCm5OeMSVe6wRa1fEeuLit4gPhVC9wVW6DiT2afugHF18hOnzfmYf1Lpv1-TrmwPQUtvK7T_u3]--></g></svg>